<svg width="66" height="66" viewBox="0 0 66 66" fill="none" xmlns="http://www.w3.org/2000/svg">
<g filter="url(#filter0_d_8_47)">
<rect x="12" y="8" width="42" height="42" rx="8" fill="white"/>
<g clip-path="url(#clip0_8_47)">
<path d="M28.4508 14.9867C25.4533 16.0266 22.8683 18.0002 21.0754 20.6178C19.2826 23.2354 18.3764 26.3589 18.4899 29.5296C18.6035 32.7003 19.7308 35.751 21.7063 38.2336C23.6818 40.7162 26.4014 42.4999 29.4656 43.3227C31.9498 43.9637 34.5525 43.9918 37.05 43.4047C39.3124 42.8965 41.4041 41.8095 43.1203 40.25C44.9064 38.5774 46.2029 36.4496 46.8703 34.0953C47.5955 31.5351 47.7246 28.8428 47.2476 26.225H33.2976V32.0117H41.3765C41.2151 32.9347 40.8691 33.8155 40.3592 34.6017C39.8494 35.3878 39.1862 36.0629 38.4093 36.5867C37.4229 37.2395 36.3108 37.6787 35.1445 37.8758C33.9748 38.0933 32.7751 38.0933 31.6054 37.8758C30.4199 37.631 29.2983 37.1416 28.3125 36.4391C26.7284 35.3178 25.5391 33.7248 24.914 31.8875C24.2786 30.0157 24.2786 27.9866 24.914 26.1149C25.3589 24.8029 26.0944 23.6083 27.0656 22.6203C28.177 21.4689 29.584 20.6459 31.1324 20.2416C32.6807 19.8373 34.3105 19.8672 35.8429 20.3281C37.0401 20.6955 38.1349 21.3375 39.0398 22.2031C39.9508 21.2969 40.8601 20.3883 41.7679 19.4774C42.2367 18.9875 42.7476 18.5211 43.2093 18.0195C41.8278 16.734 40.2062 15.7337 38.4375 15.0758C35.2165 13.9062 31.6921 13.8748 28.4508 14.9867Z" fill="white"/>
<path d="M28.4508 14.9867C31.6918 13.874 35.2162 13.9046 38.4375 15.0734C40.2065 15.7358 41.8274 16.741 43.207 18.0312C42.7383 18.5328 42.2437 19.0016 41.7656 19.4891C40.8562 20.3969 39.9476 21.3016 39.0398 22.2031C38.1349 21.3375 37.0401 20.6954 35.8429 20.3281C34.311 19.8656 32.6813 19.8339 31.1325 20.2366C29.5838 20.6393 28.1759 21.4608 27.0633 22.6109C26.0921 23.5989 25.3566 24.7935 24.9117 26.1055L20.0531 22.3437C21.7922 18.8951 24.8033 16.2571 28.4508 14.9867Z" fill="#E33629"/>
<path d="M18.7641 26.0703C19.025 24.776 19.4586 23.5226 20.0531 22.3438L24.9117 26.1148C24.2763 27.9866 24.2763 30.0157 24.9117 31.8875C23.293 33.1375 21.6734 34.3938 20.0531 35.6563C18.5652 32.6945 18.1114 29.3199 18.7641 26.0703Z" fill="#F8BD00"/>
<path d="M33.2977 26.2227H47.2477C47.7246 28.8405 47.5955 31.5328 46.8703 34.093C46.2029 36.4472 44.9065 38.575 43.1203 40.2477C41.5524 39.0242 39.9774 37.8102 38.4094 36.5867C39.1868 36.0624 39.8503 35.3865 40.3601 34.5995C40.87 33.8126 41.2157 32.9308 41.3766 32.007H33.2977C33.2953 30.0805 33.2977 28.1516 33.2977 26.2227Z" fill="#587DBD"/>
<path d="M20.0508 35.6563C21.6711 34.4063 23.2906 33.15 24.9094 31.8875C25.5356 33.7255 26.7267 35.3185 28.3125 36.4391C29.3014 37.1384 30.4254 37.6237 31.6125 37.8641C32.7822 38.0816 33.9819 38.0816 35.1516 37.8641C36.3179 37.6669 37.43 37.2278 38.4164 36.575C39.9844 37.7984 41.5594 39.0125 43.1273 40.236C41.4115 41.7962 39.3197 42.8841 37.057 43.393C34.5596 43.9801 31.9569 43.952 29.4727 43.3109C27.5079 42.7864 25.6727 41.8616 24.082 40.5945C22.3986 39.2577 21.0235 37.5733 20.0508 35.6563Z" fill="#319F43"/>
</g>
</g>
<defs>
<filter id="filter0_d_8_47" x="0" y="0" width="66" height="66" filterUnits="userSpaceOnUse" color-interpolation-filters="sRGB">
<feFlood flood-opacity="0" result="BackgroundImageFix"/>
<feColorMatrix in="SourceAlpha" type="matrix" values="0 0 0 0 0 0 0 0 0 0 0 0 0 0 0 0 0 0 127 0" result="hardAlpha"/>
<feOffset dy="4"/>
<feGaussianBlur stdDeviation="6"/>
<feComposite in2="hardAlpha" operator="out"/>
<feColorMatrix type="matrix" values="0 0 0 0 0 0 0 0 0 0 0 0 0 0 0 0 0 0 0.12 0"/>
<feBlend mode="normal" in2="BackgroundImageFix" result="effect1_dropShadow_8_47"/>
<feBlend mode="normal" in="SourceGraphic" in2="effect1_dropShadow_8_47" result="shape"/>
</filter>
<clipPath id="clip0_8_47">
<rect width="30" height="30" fill="white" transform="translate(18 14)"/>
</clipPath>
</defs>
</svg>
